<?xml version="1.0" encoding="UTF-8"?>
<!DOCTYPE svg PUBLIC "-//W3C//DTD SVG 1.1//EN" "http://www.w3.org/Graphics/SVG/1.1/DTD/svg11.dtd">
<svg xmlns="http://www.w3.org/2000/svg" version="1.1" width="2012px" height="2692px" style="shape-rendering:geometricPrecision; text-rendering:geometricPrecision; image-rendering:optimizeQuality; fill-rule:evenodd; clip-rule:evenodd" xmlns:xlink="http://www.w3.org/1999/xlink">
<g><path style="opacity:0.985" fill="#13798a" d="M 1477.5,-0.5 C 1492.5,-0.5 1507.5,-0.5 1522.5,-0.5C 1654.19,11.5595 1754.03,73.8928 1822,186.5C 1885.3,306.804 1885.3,427.138 1822,547.5C 1771.52,634.945 1697.69,693.111 1600.5,722C 1496.06,750.08 1397.72,736.08 1305.5,680C 1302.58,678.119 1299.41,676.952 1296,676.5C 1254.65,687.879 1213.15,698.712 1171.5,709C 1163.18,711.944 1158.84,709.111 1158.5,700.5C 1169.67,657.475 1181.01,614.475 1192.5,571.5C 1133.6,477.41 1117.76,376.41 1145,268.5C 1177.3,161.547 1243.46,83.3801 1343.5,34C 1386.18,14.3312 1430.85,2.83118 1477.5,-0.5 Z M 1484.5,16.5 C 1595.37,14.5372 1688.54,53.8705 1764,134.5C 1845.67,234.233 1869.67,346.566 1836,471.5C 1795.77,589.393 1716.27,667.226 1597.5,705C 1504.09,729.99 1414.76,719.657 1329.5,674C 1321.83,669.833 1314.49,665.166 1307.5,660C 1299.77,658.034 1292.11,658.367 1284.5,661C 1249.57,670.273 1214.74,679.773 1180,689.5C 1190.15,649.576 1200.31,609.576 1210.5,569.5C 1210.7,566.205 1209.87,563.205 1208,560.5C 1175.21,511.875 1156.21,458.209 1151,399.5C 1143.23,283.42 1181.4,185.587 1265.5,106C 1328.37,51.9158 1401.37,22.0825 1484.5,16.5 Z M 1409.5,262.5 C 1436.5,262.5 1463.5,262.5 1490.5,262.5C 1490.5,295.833 1490.5,329.167 1490.5,362.5C 1456.83,362.5 1423.17,362.5 1389.5,362.5C 1390.92,335.075 1395.08,308.075 1402,281.5C 1403.82,274.86 1406.32,268.527 1409.5,262.5 Z M 1507.5,262.5 C 1534.51,262.167 1561.51,262.5 1588.5,263.5C 1598.16,288.977 1604.33,315.31 1607,342.5C 1607.5,349.158 1607.67,355.825 1607.5,362.5C 1574.17,362.5 1540.83,362.5 1507.5,362.5C 1507.5,329.167 1507.5,295.833 1507.5,262.5 Z M 1389.5,380.5 C 1423.17,380.5 1456.83,380.5 1490.5,380.5C 1490.5,413.833 1490.5,447.167 1490.5,480.5C 1463.5,480.667 1436.5,480.5 1409.5,480C 1397.01,448.062 1390.35,414.895 1389.5,380.5 Z M 1535.5,404.5 C 1540.31,405.493 1544.98,406.993 1549.5,409C 1593.42,428.195 1637.42,447.195 1681.5,466C 1684.76,467.262 1687.42,469.262 1689.5,472C 1688.54,473.419 1687.71,474.919 1687,476.5C 1679.95,483.049 1673.45,490.049 1667.5,497.5C 1668.75,500.329 1670.25,502.995 1672,505.5C 1691,524.5 1710,543.5 1729,562.5C 1731.07,566.586 1730.4,570.253 1727,573.5C 1716.92,584.42 1706.08,594.42 1694.5,603.5C 1693.5,603 1692.5,602.5 1691.5,602C 1673.55,584.054 1655.55,566.054 1637.5,548C 1634.44,545.277 1631.11,542.944 1627.5,541C 1624.79,540.262 1622.45,540.929 1620.5,543C 1614.25,549.92 1607.42,556.086 1600,561.5C 1598.39,560.899 1597.06,559.899 1596,558.5C 1574.82,508.813 1553.65,459.146 1532.5,409.5C 1532.32,407.032 1533.32,405.365 1535.5,404.5 Z"/></g>
<g><path style="opacity:0.985" fill="#13798a" d="M 1481.5,157.5 C 1556.91,154.636 1619.08,181.636 1668,238.5C 1709.49,295.157 1722.16,357.824 1706,426.5C 1705.18,433.136 1701.68,437.469 1695.5,439.5C 1690.22,439.043 1687.55,436.21 1687.5,431C 1698.24,391.42 1698.08,351.92 1687,312.5C 1664.31,247.814 1620.48,204.647 1555.5,183C 1463.37,160.519 1389.54,187.352 1334,263.5C 1297.59,323.605 1292.59,386.272 1319,451.5C 1347.26,511.407 1393.76,548.907 1458.5,564C 1487.97,570.274 1517.3,569.607 1546.5,562C 1551.17,561.333 1555.83,561.333 1560.5,562C 1565.5,569.276 1563.83,574.61 1555.5,578C 1480.05,596.386 1413.05,580.386 1354.5,530C 1291.42,468.519 1271.25,395.019 1294,309.5C 1317.83,237.667 1365.67,189.833 1437.5,166C 1452.08,161.963 1466.74,159.13 1481.5,157.5 Z M 1409.5,262.5 C 1406.32,268.527 1403.82,274.86 1402,281.5C 1395.08,308.075 1390.92,335.075 1389.5,362.5C 1423.17,362.5 1456.83,362.5 1490.5,362.5C 1490.5,329.167 1490.5,295.833 1490.5,262.5C 1463.5,262.5 1436.5,262.5 1409.5,262.5 Z M 1507.5,262.5 C 1507.5,295.833 1507.5,329.167 1507.5,362.5C 1540.83,362.5 1574.17,362.5 1607.5,362.5C 1607.67,355.825 1607.5,349.158 1607,342.5C 1604.33,315.31 1598.16,288.977 1588.5,263.5C 1561.51,262.5 1534.51,262.167 1507.5,262.5 Z"/></g>
<g><path style="opacity:0.989" fill="#12798a" d="M 1495.5,184.5 C 1501.94,182.756 1505.77,185.09 1507,191.5C 1507.5,209.164 1507.67,226.83 1507.5,244.5C 1531.51,244.833 1555.51,244.5 1579.5,243.5C 1575.02,233.865 1569.52,224.865 1563,216.5C 1560.12,206.375 1563.95,202.208 1574.5,204C 1578.75,207.581 1582.25,211.748 1585,216.5C 1589.83,225.5 1594.67,234.5 1599.5,243.5C 1610.82,244.332 1622.15,244.832 1633.5,245C 1638.92,245.249 1641.92,248.083 1642.5,253.5C 1641.79,255.811 1640.79,257.978 1639.5,260C 1637.21,260.822 1634.88,261.489 1632.5,262C 1624.17,262.5 1615.84,262.666 1607.5,262.5C 1618.67,294.874 1624.67,328.207 1625.5,362.5C 1637.35,362.654 1649.18,362.321 1661,361.5C 1668.8,361.419 1676.3,362.752 1683.5,365.5C 1687.2,369.282 1687.37,373.282 1684,377.5C 1682.35,378.717 1680.52,379.55 1678.5,380C 1660.84,380.5 1643.17,380.667 1625.5,380.5C 1624.92,390.849 1624.09,401.183 1623,411.5C 1621.96,416.043 1619.12,418.043 1614.5,417.5C 1610.82,418.235 1608.32,416.901 1607,413.5C 1606.87,402.504 1607.04,391.504 1607.5,380.5C 1574.17,380.5 1540.83,380.5 1507.5,380.5C 1507.5,413.833 1507.5,447.167 1507.5,480.5C 1516.51,480.334 1525.51,480.5 1534.5,481C 1542.85,483.106 1544.68,487.939 1540,495.5C 1538.35,496.717 1536.52,497.55 1534.5,498C 1525.47,498.716 1516.47,498.549 1507.5,497.5C 1507.67,515.836 1507.5,534.17 1507,552.5C 1503.49,559.227 1498.66,560.227 1492.5,555.5C 1491.1,553.018 1490.27,550.352 1490,547.5C 1490.52,531.15 1490.36,514.816 1489.5,498.5C 1465.5,497.314 1441.5,497.314 1417.5,498.5C 1423.5,509.83 1430,520.83 1437,531.5C 1437.36,540.573 1433.19,543.739 1424.5,541C 1421.3,538.131 1418.46,534.965 1416,531.5C 1409.63,520.628 1403.47,509.628 1397.5,498.5C 1387.54,498.376 1377.54,498.21 1367.5,498C 1359.48,497.982 1355.65,494.148 1356,486.5C 1356.83,484.333 1358.33,482.833 1360.5,482C 1370.44,480.771 1380.44,480.104 1390.5,480C 1379.06,447.86 1373.06,414.694 1372.5,380.5C 1355.17,379.511 1337.84,379.344 1320.5,380C 1314.68,379.549 1311.68,376.382 1311.5,370.5C 1312.7,365.379 1316.03,362.879 1321.5,363C 1336.83,363.055 1352.17,363.055 1367.5,363C 1369.4,362.801 1370.9,361.967 1372,360.5C 1373.16,327.012 1379.33,294.512 1390.5,263C 1380.11,262.9 1369.77,262.233 1359.5,261C 1355.25,257.58 1354.41,253.413 1357,248.5C 1359.34,246.226 1362.18,245.059 1365.5,245C 1374.02,244.274 1382.52,244.44 1391,245.5C 1393.65,245.379 1396.15,244.712 1398.5,243.5C 1404.7,230.26 1412.03,217.76 1420.5,206C 1431.21,200.593 1436.04,203.76 1435,215.5C 1428.77,224.736 1422.94,234.236 1417.5,244C 1441.83,244.5 1466.16,244.667 1490.5,244.5C 1490.38,227.822 1490.21,211.155 1490,194.5C 1490.26,190.144 1492.09,186.81 1495.5,184.5 Z M 1409.5,262.5 C 1406.32,268.527 1403.82,274.86 1402,281.5C 1395.08,308.075 1390.92,335.075 1389.5,362.5C 1423.17,362.5 1456.83,362.5 1490.5,362.5C 1490.5,329.167 1490.5,295.833 1490.5,262.5C 1463.5,262.5 1436.5,262.5 1409.5,262.5 Z M 1507.5,262.5 C 1507.5,295.833 1507.5,329.167 1507.5,362.5C 1540.83,362.5 1574.17,362.5 1607.5,362.5C 1607.67,355.825 1607.5,349.158 1607,342.5C 1604.33,315.31 1598.16,288.977 1588.5,263.5C 1561.51,262.5 1534.51,262.167 1507.5,262.5 Z M 1389.5,380.5 C 1390.35,414.895 1397.01,448.062 1409.5,480C 1436.5,480.5 1463.5,480.667 1490.5,480.5C 1490.5,447.167 1490.5,413.833 1490.5,380.5C 1456.83,380.5 1423.17,380.5 1389.5,380.5 Z"/></g>
<g><path style="opacity:0.979" fill="#137889" d="M 1530.5,392.5 C 1538.15,391.817 1545.49,392.984 1552.5,396C 1597.17,415.333 1641.83,434.667 1686.5,454C 1695.43,456.925 1700.76,462.925 1702.5,472C 1699.31,482.19 1693.47,490.69 1685,497.5C 1684.33,498.5 1684.33,499.5 1685,500.5C 1702.36,518.196 1720.03,535.529 1738,552.5C 1745.33,561.833 1745.33,571.167 1738,580.5C 1726.44,592.731 1714.27,604.231 1701.5,615C 1694.01,617.731 1687.34,616.398 1681.5,611C 1663.32,592.653 1644.99,574.486 1626.5,556.5C 1620.56,562.944 1613.89,568.444 1606.5,573C 1599.63,575.549 1593.46,574.383 1588,569.5C 1585.16,565.828 1582.83,561.828 1581,557.5C 1561.55,510.601 1541.55,463.935 1521,417.5C 1517.34,406.39 1520.51,398.057 1530.5,392.5 Z M 1535.5,404.5 C 1533.32,405.365 1532.32,407.032 1532.5,409.5C 1553.65,459.146 1574.82,508.813 1596,558.5C 1597.06,559.899 1598.39,560.899 1600,561.5C 1607.42,556.086 1614.25,549.92 1620.5,543C 1622.45,540.929 1624.79,540.262 1627.5,541C 1631.11,542.944 1634.44,545.277 1637.5,548C 1655.55,566.054 1673.55,584.054 1691.5,602C 1692.5,602.5 1693.5,603 1694.5,603.5C 1706.08,594.42 1716.92,584.42 1727,573.5C 1730.4,570.253 1731.07,566.586 1729,562.5C 1710,543.5 1691,524.5 1672,505.5C 1670.25,502.995 1668.75,500.329 1667.5,497.5C 1673.45,490.049 1679.95,483.049 1687,476.5C 1687.71,474.919 1688.54,473.419 1689.5,472C 1687.42,469.262 1684.76,467.262 1681.5,466C 1637.42,447.195 1593.42,428.195 1549.5,409C 1544.98,406.993 1540.31,405.493 1535.5,404.5 Z"/></g>
<g><path style="opacity:0.999" fill="#12798a" d="M 271.5,545.5 C 513.833,545.5 756.167,545.5 998.5,545.5C 996.882,600.156 996.382,654.823 997,709.5C 997.298,720.565 998.298,731.565 1000,742.5C 1000.55,746.693 1001.71,750.693 1003.5,754.5C 998.868,755.328 994.202,755.828 989.5,756C 922.832,756.42 856.165,756.92 789.5,757.5C 789.333,858.834 789.5,960.167 790,1061.5C 791.233,1085.16 791.9,1108.83 792,1132.5C 790.745,1141.34 787.078,1149.01 781,1155.5C 766.193,1171.79 751.86,1188.46 738,1205.5C 731.857,1212.82 724.69,1218.82 716.5,1223.5C 715.5,1073.5 715.167,923.501 715.5,773.5C 567.5,773.5 419.5,773.5 271.5,773.5C 271.5,697.5 271.5,621.5 271.5,545.5 Z"/></g>
<g><path style="opacity:0.996" fill="#13798a" d="M 1814.5,760.5 C 1816.92,760.192 1819.26,760.526 1821.5,761.5C 1800.1,865.345 1778.76,969.178 1757.5,1073C 1742.21,1074.55 1727.21,1073.21 1712.5,1069C 1701.56,1063.48 1696.23,1054.48 1696.5,1042C 1697.13,1035.81 1697.96,1029.64 1699,1023.5C 1705.54,998.222 1711.87,972.888 1718,947.5C 1721.12,933.517 1722.95,919.517 1723.5,905.5C 1714.35,912.812 1705.35,920.312 1696.5,928C 1668.14,956.028 1640.14,984.361 1612.5,1013C 1592.5,1032.33 1572.5,1051.67 1552.5,1071C 1480.99,1144.01 1409.32,1216.85 1337.5,1289.5C 1306.14,1284.41 1275.14,1277.58 1244.5,1269C 1153.14,1243.24 1061.47,1218.58 969.5,1195C 940.849,1187.67 911.849,1182.67 882.5,1180C 851.961,1214.2 821.794,1248.7 792,1283.5C 774.06,1299.44 756.726,1316.11 740,1333.5C 700.101,1376.31 660.434,1419.31 621,1462.5C 598.136,1487.03 574.303,1510.53 549.5,1533C 543.271,1538.23 536.771,1543.07 530,1547.5C 522.571,1543.07 515.404,1538.24 508.5,1533C 502.167,1526.67 495.833,1520.33 489.5,1514C 540.037,1458.46 590.204,1402.63 640,1346.5C 652.362,1333.8 665.029,1321.47 678,1309.5C 732.362,1247.8 788.195,1187.3 845.5,1128C 851.208,1122.62 857.208,1117.62 863.5,1113C 873.106,1111.44 882.772,1111.11 892.5,1112C 928.306,1117.45 963.64,1125.12 998.5,1135C 1095.28,1162.45 1192.28,1189.11 1289.5,1215C 1307.02,1219.47 1323.02,1216.47 1337.5,1206C 1344.97,1199.53 1352.14,1192.7 1359,1185.5C 1373.96,1168.2 1389.3,1151.2 1405,1134.5C 1495.2,1043.3 1585.03,951.805 1674.5,860C 1623.55,867.601 1572.55,875.435 1521.5,883.5C 1520.01,883.291 1518.84,882.624 1518,881.5C 1515.14,869.04 1511.8,856.707 1508,844.5C 1506,837.363 1507.83,831.53 1513.5,827C 1521.79,823.127 1530.45,820.46 1539.5,819C 1612.39,804.021 1685.06,788.021 1757.5,771C 1776.6,767.264 1795.6,763.764 1814.5,760.5 Z"/></g>
<g><path style="opacity:0.998" fill="#13798a" d="M 1059.5,789.5 C 1131.87,789.375 1204.2,790.875 1276.5,794C 1327.57,796.107 1378.24,801.774 1428.5,811C 1445.62,814.318 1462.29,819.152 1478.5,825.5C 1481.67,842.847 1485.17,860.18 1489,877.5C 1491.93,888.184 1496.09,898.351 1501.5,908C 1509.43,910.656 1517.59,911.823 1526,911.5C 1548.48,908.613 1570.98,906.113 1593.5,904C 1552.35,946.319 1510.68,988.153 1468.5,1029.5C 1445.5,987.688 1410.83,960.522 1364.5,948C 1329.86,938.57 1294.7,935.737 1259,939.5C 1243.31,936.528 1227.48,934.694 1211.5,934C 1138.12,930.351 1064.79,931.018 991.5,936C 989.32,941.574 988.154,947.407 988,953.5C 987.259,994.504 987.426,1035.5 988.5,1076.5C 988.565,1085.56 987.898,1094.56 986.5,1103.5C 981.684,1101.84 976.684,1101.01 971.5,1101C 951.5,1095.67 931.5,1090.33 911.5,1085C 885.217,1079.05 860.55,1083.05 837.5,1097C 833.633,1099.7 829.633,1102.2 825.5,1104.5C 824.991,1000.5 824.991,896.503 825.5,792.5C 903.67,792.047 981.67,791.047 1059.5,789.5 Z"/></g>
<g><path style="opacity:0.998" fill="#13798a" d="M 1645.5,1020.5 C 1663.54,1126.58 1630.54,1213.08 1546.5,1280C 1526.39,1293.62 1506.72,1307.78 1487.5,1322.5C 1544.6,1332.9 1595.94,1355.73 1641.5,1391C 1709.28,1449.05 1747.11,1522.89 1755,1612.5C 1761.09,1692.13 1744.76,1766.8 1706,1836.5C 1672.86,1890.16 1628.36,1931.66 1572.5,1961C 1523.67,1985.27 1472.34,2001.94 1418.5,2011C 1372.49,2018.81 1326.16,2023.14 1279.5,2024C 1127.83,2024.5 976.167,2024.67 824.5,2024.5C 824.333,1782.5 824.5,1540.5 825,1298.5C 825.979,1288.89 829.313,1280.22 835,1272.5C 844.667,1262.83 854.333,1253.17 864,1243.5C 872.457,1232.71 881.291,1222.21 890.5,1212C 897.285,1209.55 904.285,1208.89 911.5,1210C 929.198,1213.51 946.865,1217.17 964.5,1221C 972.18,1222.62 979.513,1225.12 986.5,1228.5C 988.703,1230.3 989.869,1232.63 990,1235.5C 989.855,1252.24 990.688,1268.74 992.5,1285C 1011.22,1287.86 1030.05,1289.03 1049,1288.5C 1086.17,1287.43 1123.33,1286.43 1160.5,1285.5C 1190.77,1283.99 1220.44,1287.49 1249.5,1296C 1272.75,1302.98 1296.08,1309.65 1319.5,1316C 1329.29,1318.15 1338.62,1316.81 1347.5,1312C 1354.53,1307.15 1361.2,1301.81 1367.5,1296C 1447.83,1215 1528.17,1134 1608.5,1053C 1620.73,1041.93 1633.06,1031.1 1645.5,1020.5 Z M 1101.5,1425.5 C 1177.2,1424.86 1252.86,1426.03 1328.5,1429C 1369.34,1430.7 1409.34,1437.36 1448.5,1449C 1532.34,1474.51 1577.17,1531.01 1583,1618.5C 1587.01,1670.43 1577.68,1719.77 1555,1766.5C 1540.21,1790.29 1521.05,1809.79 1497.5,1825C 1448.99,1856.89 1395.66,1874.06 1337.5,1876.5C 1328.46,1876.33 1319.46,1875.66 1310.5,1874.5C 1302.98,1876.7 1295.31,1878.2 1287.5,1879C 1266.88,1881 1246.21,1882.33 1225.5,1883C 1168.17,1884.49 1110.84,1884.82 1053.5,1884C 1032.1,1883.76 1010.77,1882.59 989.5,1880.5C 985.788,1751.51 985.621,1622.51 989,1493.5C 989.424,1472.1 990.758,1450.77 993,1429.5C 993.5,1429 994,1428.5 994.5,1428C 1030.33,1427.14 1066,1426.31 1101.5,1425.5 Z"/></g>
<g><path style="opacity:0.999" fill="#13798a" d="M 416.5,2691.5 C 399.167,2691.5 381.833,2691.5 364.5,2691.5C 360.018,2690.67 355.351,2690.17 350.5,2690C 330.5,2689.67 310.5,2689.33 290.5,2689C 220.167,2681.33 149.833,2673.67 79.5,2666C 56.3614,2662.75 33.3614,2658.75 10.5,2654C 5.78792,2652.45 2.12126,2649.61 -0.5,2645.5C -0.5,2557.17 -0.5,2468.83 -0.5,2380.5C 10.9259,2382.36 22.2592,2384.86 33.5,2388C 102.343,2411.13 172.677,2428.13 244.5,2439C 268.784,2441.01 293.117,2441.85 317.5,2441.5C 367.677,2442.32 417.677,2439.82 467.5,2434C 605.771,2414.73 684.271,2335.9 703,2197.5C 711.266,2136.45 715.932,2075.11 717,2013.5C 717.912,1975.01 718.412,1936.51 718.5,1898C 717.065,1771.16 715.398,1644.33 713.5,1517.5C 713.622,1479.15 714.455,1440.82 716,1402.5C 730.925,1380.9 748.092,1361.06 767.5,1343C 771.689,1339.31 776.022,1335.81 780.5,1332.5C 785.677,1334.73 788.011,1338.73 787.5,1344.5C 785.895,1471.48 784.895,1598.48 784.5,1725.5C 785.124,1800.83 785.624,1876.17 786,1951.5C 786.109,1987.88 787.275,2024.21 789.5,2060.5C 860.507,2060.47 931.507,2061.14 1002.5,2062.5C 1000.69,2068.7 999.522,2075.03 999,2081.5C 1005.18,2172.06 993.181,2260.06 963,2345.5C 900.2,2501.97 788.367,2605.47 627.5,2656C 558.228,2674.99 487.895,2686.82 416.5,2691.5 Z"/></g>
<g><path style="opacity:0.997" fill="#13798a" d="M 1086.5,2170.5 C 1101.17,2170.5 1115.83,2170.5 1130.5,2170.5C 1130.67,2221.17 1130.5,2271.83 1130,2322.5C 1128.86,2355.65 1112.36,2376.49 1080.5,2385C 1064.69,2387.46 1049.02,2386.8 1033.5,2383C 1015.07,2376.24 1003.24,2363.41 998,2344.5C 996.275,2336.75 995.108,2328.92 994.5,2321C 994.675,2319.34 995.342,2318.01 996.5,2317C 1009.82,2315.33 1023.16,2313.83 1036.5,2312.5C 1036.18,2320.39 1037.34,2328.06 1040,2335.5C 1047.16,2347.82 1057.66,2351.99 1071.5,2348C 1076.94,2346.23 1080.77,2342.73 1083,2337.5C 1084.74,2333.34 1085.74,2329.01 1086,2324.5C 1086.5,2273.17 1086.67,2221.83 1086.5,2170.5 Z"/></g>
<g><path style="opacity:0.997" fill="#12798a" d="M 1502.5,2170.5 C 1540.85,2170.14 1579.18,2170.64 1617.5,2172C 1644.22,2174.06 1661.39,2187.9 1669,2213.5C 1672.76,2238.81 1663.59,2257.64 1641.5,2270C 1673.52,2282.07 1685.68,2304.9 1678,2338.5C 1669.01,2366.42 1649.84,2380.92 1620.5,2382C 1581.17,2382.5 1541.83,2382.67 1502.5,2382.5C 1502.5,2311.83 1502.5,2241.17 1502.5,2170.5 Z M 1546.5,2206.5 C 1568.56,2206.56 1590.56,2207.4 1612.5,2209C 1622.32,2212.67 1627.32,2219.84 1627.5,2230.5C 1626.91,2242.26 1620.91,2249.76 1609.5,2253C 1588.54,2254.43 1567.54,2254.93 1546.5,2254.5C 1546.5,2238.5 1546.5,2222.5 1546.5,2206.5 Z M 1546.5,2290.5 C 1562.84,2290.33 1579.17,2290.5 1595.5,2291C 1605.68,2290.75 1615.34,2292.75 1624.5,2297C 1635.82,2307.28 1638.32,2319.45 1632,2333.5C 1625.09,2342.37 1615.92,2346.53 1604.5,2346C 1585.17,2346.5 1565.84,2346.67 1546.5,2346.5C 1546.5,2327.83 1546.5,2309.17 1546.5,2290.5 Z"/></g>
<g><path style="opacity:0.993" fill="#13798a" d="M 1226.5,2225.5 C 1243.26,2224.76 1259.6,2226.92 1275.5,2232C 1291,2239.16 1298.84,2251.33 1299,2268.5C 1299.33,2297.17 1299.67,2325.83 1300,2354.5C 1300.9,2364.29 1303.74,2373.46 1308.5,2382C 1294.5,2382.5 1280.5,2382.67 1266.5,2382.5C 1265.31,2377.42 1263.81,2372.42 1262,2367.5C 1239.27,2388.05 1213.77,2392.21 1185.5,2380C 1166.69,2366.59 1160.36,2348.59 1166.5,2326C 1172.08,2311.42 1182.41,2302.09 1197.5,2298C 1217.95,2293.59 1238.28,2288.76 1258.5,2283.5C 1260.27,2264.6 1251.6,2255.94 1232.5,2257.5C 1218.42,2257.41 1209.25,2264.08 1205,2277.5C 1193.59,2275.08 1182.09,2272.92 1170.5,2271C 1169.57,2270.61 1168.91,2269.95 1168.5,2269C 1177.1,2240.2 1196.44,2225.7 1226.5,2225.5 Z M 1256.5,2310.5 C 1264.44,2336.94 1254.78,2352.61 1227.5,2357.5C 1210.93,2355.65 1204.1,2346.65 1207,2330.5C 1210.62,2324.1 1216.12,2320.26 1223.5,2319C 1234.74,2316.59 1245.74,2313.76 1256.5,2310.5 Z"/></g>
<g><path style="opacity:0.994" fill="#13798a" d="M 1767.5,2225.5 C 1814.96,2225.46 1841.13,2249.12 1846,2296.5C 1846.5,2303.83 1846.67,2311.16 1846.5,2318.5C 1812.83,2318.5 1779.17,2318.5 1745.5,2318.5C 1745.91,2337.19 1754.91,2349.35 1772.5,2355C 1788.58,2356.91 1798.75,2350.08 1803,2334.5C 1803.56,2333.98 1804.23,2333.64 1805,2333.5C 1818.16,2335.89 1831.33,2338.22 1844.5,2340.5C 1836.15,2367.01 1818.15,2382.17 1790.5,2386C 1767.33,2389.62 1746.33,2384.62 1727.5,2371C 1713.62,2357.07 1705.79,2340.24 1704,2320.5C 1700.88,2296.42 1705.55,2274.08 1718,2253.5C 1730.36,2236.74 1746.86,2227.4 1767.5,2225.5 Z M 1772.5,2257.5 C 1794.04,2259.05 1805.04,2270.71 1805.5,2292.5C 1785.83,2292.5 1766.17,2292.5 1746.5,2292.5C 1746.26,2273.9 1754.93,2262.23 1772.5,2257.5 Z"/></g>
<g><path style="opacity:0.994" fill="#13798a" d="M 1931.5,2225.5 C 1979.93,2225.76 2006.1,2250.1 2010,2298.5C 2010.5,2305.16 2010.67,2311.83 2010.5,2318.5C 1976.83,2318.5 1943.17,2318.5 1909.5,2318.5C 1909.66,2331.99 1915,2342.82 1925.5,2351C 1945.47,2360.35 1959.31,2354.85 1967,2334.5C 1967.56,2333.98 1968.23,2333.64 1969,2333.5C 1982.29,2335.8 1995.45,2338.46 2008.5,2341.5C 1999.63,2367.43 1981.63,2382.27 1954.5,2386C 1931.86,2389.44 1911.19,2384.78 1892.5,2372C 1878.09,2358.68 1869.92,2342.18 1868,2322.5C 1865.86,2303.68 1867.86,2285.35 1874,2267.5C 1885.5,2242.81 1904.67,2228.81 1931.5,2225.5 Z M 1935.5,2257.5 C 1957.53,2258.53 1968.86,2270.2 1969.5,2292.5C 1949.83,2292.5 1930.17,2292.5 1910.5,2292.5C 1910.3,2274.53 1918.63,2262.86 1935.5,2257.5 Z"/></g>
<g><path style="opacity:0.994" fill="#12798a" d="M 1319.5,2228.5 C 1334.17,2228.5 1348.83,2228.5 1363.5,2228.5C 1375.22,2264.17 1387.06,2299.84 1399,2335.5C 1411.13,2300.27 1422.97,2264.93 1434.5,2229.5C 1448.83,2228.17 1463.17,2228.17 1477.5,2229.5C 1456.23,2287.46 1435.07,2345.46 1414,2403.5C 1409.48,2417.07 1401.64,2428.24 1390.5,2437C 1379.54,2442.76 1367.88,2445.26 1355.5,2444.5C 1347.75,2444.62 1340.08,2443.95 1332.5,2442.5C 1330.97,2431.41 1329.97,2420.41 1329.5,2409.5C 1339.9,2412.3 1350.23,2412.13 1360.5,2409C 1364.33,2406.5 1367.5,2403.33 1370,2399.5C 1372.92,2394.16 1375.42,2388.66 1377.5,2383C 1357.66,2331.66 1338.33,2280.16 1319.5,2228.5 Z"/></g>
<g><path style="opacity:0.991" fill="#13798a" d="M 983.5,2481.5 C 1003.32,2479.7 1020.99,2484.87 1036.5,2497C 1044.86,2505.56 1050.2,2515.73 1052.5,2527.5C 1042.19,2529.29 1032.02,2531.62 1022,2534.5C 1015.48,2514.15 1001.65,2505.99 980.5,2510C 965.869,2514.97 957.369,2525.14 955,2540.5C 952.316,2557.08 953.316,2573.42 958,2589.5C 969.143,2610.99 985.643,2616.49 1007.5,2606C 1015.7,2598.97 1020.7,2590.14 1022.5,2579.5C 1032.97,2582.16 1043.3,2585.32 1053.5,2589C 1042.88,2625.49 1018.55,2641.83 980.5,2638C 946.364,2631.53 926.864,2611.03 922,2576.5C 919.617,2556.88 921.95,2537.88 929,2519.5C 940.478,2497.18 958.645,2484.51 983.5,2481.5 Z"/></g>
<g><path style="opacity:0.988" fill="#12798a" d="M 1679.5,2487.5 C 1681.48,2499.79 1682.15,2512.46 1681.5,2525.5C 1688.17,2525.5 1694.83,2525.5 1701.5,2525.5C 1701.5,2533.5 1701.5,2541.5 1701.5,2549.5C 1694.83,2549.5 1688.17,2549.5 1681.5,2549.5C 1681.33,2568.84 1681.5,2588.17 1682,2607.5C 1682.85,2611.51 1685.35,2613.51 1689.5,2613.5C 1693.3,2612.97 1696.96,2611.97 1700.5,2610.5C 1701.94,2617.09 1702.94,2623.76 1703.5,2630.5C 1703.35,2632.32 1702.68,2633.82 1701.5,2635C 1687.48,2640.27 1673.82,2639.6 1660.5,2633C 1657.89,2631.06 1656.06,2628.56 1655,2625.5C 1653.1,2619.66 1652.1,2613.66 1652,2607.5C 1651.5,2588.17 1651.33,2568.84 1651.5,2549.5C 1647.17,2549.5 1642.83,2549.5 1638.5,2549.5C 1638.5,2541.5 1638.5,2533.5 1638.5,2525.5C 1642.83,2525.5 1647.17,2525.5 1651.5,2525.5C 1651.17,2518.14 1651.5,2510.8 1652.5,2503.5C 1661.73,2498.39 1670.73,2493.06 1679.5,2487.5 Z"/></g>
<g><path style="opacity:0.99" fill="#13798a" d="M 1117.5,2523.5 C 1139.66,2520.38 1158.16,2527.05 1173,2543.5C 1185.19,2562.12 1187.86,2582.12 1181,2603.5C 1168.69,2629.41 1148.19,2640.91 1119.5,2638C 1094.73,2634.39 1079.23,2620.56 1073,2596.5C 1067.55,2571.79 1074.05,2550.96 1092.5,2534C 1100.24,2528.79 1108.57,2525.29 1117.5,2523.5 Z M 1125.5,2547.5 C 1143.49,2548.66 1152.99,2558.32 1154,2576.5C 1155.74,2589.95 1151.58,2601.11 1141.5,2610C 1121.92,2617.96 1109.09,2611.79 1103,2591.5C 1102.33,2584.5 1102.33,2577.5 1103,2570.5C 1106.03,2558.31 1113.53,2550.64 1125.5,2547.5 Z"/></g>
<g><path style="opacity:0.987" fill="#12798a" d="M 1257.5,2523.5 C 1273.96,2520.91 1286.96,2526.24 1296.5,2539.5C 1310.88,2523.4 1328.22,2519.24 1348.5,2527C 1358.38,2532.58 1363.88,2541.08 1365,2552.5C 1365.5,2580.16 1365.67,2607.83 1365.5,2635.5C 1355.5,2635.5 1345.5,2635.5 1335.5,2635.5C 1335.67,2610.16 1335.5,2584.83 1335,2559.5C 1332.35,2547.6 1325.18,2543.76 1313.5,2548C 1307.66,2551.16 1303.82,2556 1302,2562.5C 1300.55,2586.79 1300.05,2611.12 1300.5,2635.5C 1290.5,2635.5 1280.5,2635.5 1270.5,2635.5C 1270.94,2608.8 1270.44,2582.13 1269,2555.5C 1264.28,2546.58 1257.12,2544.08 1247.5,2548C 1241.16,2550.84 1237.33,2555.67 1236,2562.5C 1234.55,2586.79 1234.05,2611.12 1234.5,2635.5C 1224.5,2635.5 1214.5,2635.5 1204.5,2635.5C 1204.5,2598.83 1204.5,2562.17 1204.5,2525.5C 1213.5,2525.5 1222.5,2525.5 1231.5,2525.5C 1231.33,2530.18 1231.5,2534.85 1232,2539.5C 1238.94,2531.46 1247.44,2526.13 1257.5,2523.5 Z"/></g>
<g><path style="opacity:0.99" fill="#13798a" d="M 1445.5,2523.5 C 1474.56,2521.71 1492.39,2535.05 1499,2563.5C 1501.83,2579.55 1500.5,2595.21 1495,2610.5C 1484.34,2632.75 1466.84,2641.58 1442.5,2637C 1434.69,2634.35 1428.19,2629.85 1423,2623.5C 1422.5,2641.5 1422.33,2659.5 1422.5,2677.5C 1412.5,2677.5 1402.5,2677.5 1392.5,2677.5C 1392.5,2626.83 1392.5,2576.17 1392.5,2525.5C 1401.83,2525.5 1411.17,2525.5 1420.5,2525.5C 1420.33,2530.18 1420.5,2534.85 1421,2539.5C 1427.52,2531.45 1435.69,2526.11 1445.5,2523.5 Z M 1439.5,2547.5 C 1456.43,2545.91 1466.26,2553.58 1469,2570.5C 1470.07,2580.31 1469.41,2589.98 1467,2599.5C 1459.47,2614.68 1448.3,2618.18 1433.5,2610C 1427.52,2604.88 1424.02,2598.38 1423,2590.5C 1422.16,2581.78 1422.49,2573.11 1424,2564.5C 1426.94,2556.73 1432.1,2551.07 1439.5,2547.5 Z"/></g>
<g><path style="opacity:0.992" fill="#13798a" d="M 1753.5,2523.5 C 1784.52,2519.9 1804.35,2532.9 1813,2562.5C 1814.74,2571.42 1815.57,2580.42 1815.5,2589.5C 1791.16,2589.33 1766.83,2589.5 1742.5,2590C 1745.13,2611.01 1756.46,2618.67 1776.5,2613C 1780.27,2609.62 1782.6,2605.46 1783.5,2600.5C 1793.19,2601.78 1802.86,2603.28 1812.5,2605C 1809.87,2619.34 1801.53,2629.34 1787.5,2635C 1734.89,2645.73 1710.06,2624.23 1713,2570.5C 1716.06,2545.62 1729.56,2529.95 1753.5,2523.5 Z M 1759.5,2546.5 C 1776.61,2545.95 1785.28,2554.28 1785.5,2571.5C 1771.5,2571.5 1757.5,2571.5 1743.5,2571.5C 1743.3,2559.41 1748.64,2551.07 1759.5,2546.5 Z"/></g>
<g><path style="opacity:0.995" fill="#12798a" d="M 1881.5,2523.5 C 1891.16,2522.24 1900.16,2524.07 1908.5,2529C 1905.6,2537.19 1902.6,2545.36 1899.5,2553.5C 1899,2553.83 1898.5,2554.17 1898,2554.5C 1889.33,2548.85 1881,2549.19 1873,2555.5C 1869.29,2562 1867.29,2569 1867,2576.5C 1866.5,2596.16 1866.33,2615.83 1866.5,2635.5C 1856.5,2635.5 1846.5,2635.5 1836.5,2635.5C 1836.5,2598.83 1836.5,2562.17 1836.5,2525.5C 1845.83,2525.5 1855.17,2525.5 1864.5,2525.5C 1864.33,2529.85 1864.5,2534.18 1865,2538.5C 1868.82,2531.5 1874.32,2526.5 1881.5,2523.5 Z"/></g>
<g><path style="opacity:0.989" fill="#13798a" d="M 2011.5,2591.5 C 2011.5,2597.83 2011.5,2604.17 2011.5,2610.5C 2005.92,2625.23 1995.25,2634.07 1979.5,2637C 1961.82,2640.4 1944.82,2638.4 1928.5,2631C 1918.9,2624.9 1912.56,2616.4 1909.5,2605.5C 1909.71,2604.91 1910.04,2604.41 1910.5,2604C 1919.7,2602.69 1928.87,2601.19 1938,2599.5C 1940.28,2604.55 1943.45,2609.05 1947.5,2613C 1958.64,2618.02 1969.48,2617.52 1980,2611.5C 1983.62,2606.83 1983.12,2602.66 1978.5,2599C 1963.36,2595.13 1948.36,2590.8 1933.5,2586C 1918.09,2579.58 1911.59,2568.08 1914,2551.5C 1918.56,2534.45 1929.72,2525.28 1947.5,2524C 1959.61,2522.93 1971.61,2523.59 1983.5,2526C 1996.93,2530.59 2005.26,2539.76 2008.5,2553.5C 1999.2,2554.59 1990.03,2556.26 1981,2558.5C 1977.39,2548.85 1970.39,2544.19 1960,2544.5C 1955.44,2545.05 1950.94,2545.88 1946.5,2547C 1941.96,2548.71 1940.46,2551.88 1942,2556.5C 1943.58,2558.04 1945.41,2559.21 1947.5,2560C 1958.73,2563.38 1970.06,2566.38 1981.5,2569C 1990.09,2571.38 1997.92,2575.21 2005,2580.5C 2007.71,2583.93 2009.88,2587.6 2011.5,2591.5 Z"/></g>
<g><path style="opacity:0.988" fill="#12798a" d="M 1521.5,2525.5 C 1531.5,2525.5 1541.5,2525.5 1551.5,2525.5C 1551.33,2550.17 1551.5,2574.84 1552,2599.5C 1553.48,2609.31 1559.14,2614.64 1569,2615.5C 1579.24,2614.89 1586.24,2609.89 1590,2600.5C 1591.45,2575.54 1591.95,2550.54 1591.5,2525.5C 1601.5,2525.5 1611.5,2525.5 1621.5,2525.5C 1621.5,2562.17 1621.5,2598.83 1621.5,2635.5C 1612.5,2635.5 1603.5,2635.5 1594.5,2635.5C 1594.67,2630.82 1594.5,2626.15 1594,2621.5C 1575.73,2640.72 1555.23,2643.55 1532.5,2630C 1526.1,2623.14 1522.6,2614.97 1522,2605.5C 1521.5,2578.84 1521.33,2552.17 1521.5,2525.5 Z"/></g>
</svg>
